<svg width="470" height="476" viewBox="0 0 470 476" fill="none" xmlns="http://www.w3.org/2000/svg">
<path d="M218.255 271.57L99.2381 271.588C93.3979 271.588 89.7432 265.272 92.6633 260.215L107.527 234.47C109.241 231.507 112.705 230.03 116.024 230.855L220.087 256.627C228.783 258.784 227.224 271.57 218.264 271.57H218.255Z" fill="#43B6B5"/>
<path d="M209.032 241.439L123.388 220.234C118.101 218.929 115.553 212.957 118.273 208.254L128.938 189.786C131.151 185.943 136.03 184.548 139.947 186.623L214.927 226.296C223.478 230.818 218.436 243.768 209.032 241.439Z" fill="#43B6B5"/>
<path d="M209.15 209.586L144.01 175.141C139.92 172.975 138.451 167.883 140.763 163.877L148.299 150.828C148.871 149.84 149.451 148.871 150.041 147.901C152.734 143.524 158.783 142.681 162.61 146.107L218.554 196.292C225.745 202.744 217.702 214.108 209.15 209.586Z" fill="#43B6B5"/>
<path d="M219.298 180.724L169.357 135.939C165.856 132.804 165.766 127.403 169.067 124.05C173.157 119.89 177.5 116.048 182.062 112.55C185.862 109.632 191.339 110.466 194.005 114.408L231.64 170.076C237.045 178.068 226.48 187.176 219.289 180.724H219.298Z" fill="#43B6B5"/>
<path d="M235.966 155.006L205.169 109.279C202.285 104.992 204.099 99.1746 208.878 97.1175C213.322 95.2145 217.865 93.5652 222.481 92.1878C226.471 91.0006 230.942 93.4202 232.338 97.3078L250.548 147.656C253.822 156.718 241.362 162.998 235.975 155.006H235.966Z" fill="#43B6B5"/>
<path d="M270.399 95.4229L274 130.393C274.988 139.981 261.376 143.107 258.084 134.054L245.334 98.9933C243.429 93.7645 247.229 88.1189 252.824 87.9739C256.189 87.8833 259.562 87.9377 262.936 88.128C266.663 88.3455 270.009 91.7256 270.39 95.4229H270.399Z" fill="#43B6B5"/>
<path d="M304.461 106.542L301.94 124.032C300.562 133.574 286.605 133.338 285.616 123.751L283.63 104.494C283.005 98.3861 289.09 93.8551 294.866 96.021C296.499 96.6372 298.131 97.2806 299.745 97.9693C302.856 99.2833 304.942 103.216 304.461 106.551V106.542Z" fill="#43B6B5"/>
<path d="M329.953 125.626C326.289 134.571 312.822 130.982 314.201 121.431C315.026 115.713 321.401 112.604 326.434 115.468C329.998 117.498 331.504 121.83 329.953 125.626Z" fill="#43B6B5"/>
<path d="M251.745 204.43L370.762 204.412C376.602 204.412 380.257 210.728 377.337 215.784L362.473 241.53C360.759 244.493 357.295 245.97 353.976 245.145L249.913 219.373C241.217 217.216 242.776 204.43 251.736 204.43H251.745Z" fill="#43B6B5"/>
<path d="M260.968 234.561L346.612 255.766C351.899 257.071 354.447 263.043 351.727 267.746L341.062 286.214C338.849 290.057 333.97 291.452 330.053 289.377L255.073 249.703C246.522 245.182 251.564 232.232 260.968 234.561Z" fill="#43B6B5"/>
<path d="M260.841 266.414L325.981 300.859C330.071 303.024 331.54 308.117 329.228 312.123L321.692 325.172C321.12 326.16 320.54 327.129 319.95 328.099C317.257 332.476 311.208 333.319 307.381 329.893L251.437 279.708C244.245 273.256 252.289 261.892 260.841 266.414Z" fill="#43B6B5"/>
<path d="M250.702 295.276L300.643 340.061C304.144 343.196 304.234 348.597 300.933 351.95C296.843 356.11 292.499 359.952 287.938 363.45C284.138 366.368 278.661 365.534 275.995 361.592L238.36 305.924C232.955 297.931 243.52 288.824 250.711 295.276H250.702Z" fill="#43B6B5"/>
<path d="M234.034 320.994L264.831 366.721C267.715 371.008 265.901 376.825 261.122 378.882C256.678 380.785 252.135 382.435 247.519 383.812C243.529 384.999 239.058 382.58 237.661 378.692L219.452 328.344C216.178 319.282 228.638 313.002 234.025 320.994H234.034Z" fill="#43B6B5"/>
<path d="M199.591 380.577L195.991 345.607C195.003 336.019 208.615 332.893 211.907 341.946L224.657 377.007C226.562 382.235 222.762 387.881 217.166 388.026C213.802 388.117 210.428 388.062 207.055 387.872C203.328 387.654 199.981 384.274 199.6 380.577H199.591Z" fill="#43B6B5"/>
<path d="M165.539 369.458L168.06 351.968C169.438 342.426 183.395 342.662 184.383 352.249L186.369 371.506C186.995 377.614 180.91 382.145 175.133 379.979C173.501 379.363 171.869 378.719 170.255 378.031C167.144 376.717 165.058 372.784 165.539 369.449V369.458Z" fill="#43B6B5"/>
<path d="M140.047 350.382C143.71 341.438 157.177 345.027 155.799 354.578C154.974 360.296 148.598 363.404 143.565 360.541C140.001 358.511 138.496 354.179 140.047 350.382Z" fill="#43B6B5"/>
</svg>
