<svg width="131" height="46" viewBox="0 0 131 46" fill="none" xmlns="http://www.w3.org/2000/svg">
<path d="M61.9858 17.2472C61.9176 16.5597 61.625 16.0256 61.108 15.645C60.5909 15.2643 59.8892 15.0739 59.0029 15.0739C58.4006 15.0739 57.8921 15.1592 57.4773 15.3296C57.0625 15.4944 56.7443 15.7245 56.5228 16.02C56.3068 16.3154 56.1989 16.6506 56.1989 17.0256C56.1875 17.3381 56.2529 17.6109 56.3949 17.8438C56.5426 18.0768 56.7443 18.2785 57 18.4489C57.2557 18.6137 57.5512 18.7586 57.8864 18.8836C58.2216 19.0029 58.5796 19.1052 58.9603 19.1904L60.5284 19.5654C61.2898 19.7359 61.9887 19.9631 62.625 20.2472C63.2614 20.5313 63.8125 20.8807 64.2784 21.2955C64.7444 21.7103 65.1051 22.1989 65.3608 22.7614C65.6222 23.3239 65.7557 23.9688 65.7614 24.6961C65.7557 25.7643 65.483 26.6904 64.9432 27.4745C64.4091 28.2529 63.6364 28.858 62.625 29.2898C61.6193 29.716 60.4063 29.929 58.9858 29.929C57.5767 29.929 56.3495 29.7131 55.304 29.2813C54.2642 28.8495 53.4517 28.2103 52.8665 27.3637C52.287 26.5114 51.983 25.4575 51.9546 24.2018H55.5256C55.5654 24.787 55.733 25.2756 56.0284 25.6677C56.3296 26.054 56.7301 26.3467 57.2301 26.5455C57.7358 26.7387 58.3068 26.8353 58.9432 26.8353C59.5682 26.8353 60.1108 26.7444 60.5711 26.5626C61.037 26.3807 61.3978 26.1279 61.6534 25.804C61.9091 25.4802 62.037 25.108 62.037 24.6876C62.037 24.2955 61.9205 23.966 61.6875 23.6989C61.4603 23.4319 61.125 23.2046 60.6819 23.0171C60.2444 22.8296 59.7074 22.6592 59.0711 22.5057L57.1705 22.0285C55.6989 21.6705 54.537 21.1109 53.6847 20.3495C52.8324 19.5881 52.4091 18.5626 52.4148 17.2728C52.4091 16.216 52.6904 15.2927 53.2586 14.5029C53.8324 13.7131 54.6194 13.0967 55.6194 12.6535C56.6194 12.2103 57.7557 11.9887 59.0284 11.9887C60.3239 11.9887 61.4546 12.2103 62.4205 12.6535C63.3921 13.0967 64.1478 13.7131 64.6875 14.5029C65.2273 15.2927 65.5057 16.2075 65.5228 17.2472H61.9858Z" fill="#433456"/>
<path d="M71.9084 29.929C71.0732 29.929 70.3289 29.7842 69.6755 29.4944C69.022 29.1989 68.505 28.7643 68.1243 28.1904C67.7493 27.6109 67.5618 26.8893 67.5618 26.0256C67.5618 25.2984 67.6953 24.6876 67.9624 24.1932C68.2294 23.6989 68.5931 23.3012 69.0533 23.0001C69.5135 22.6989 70.0363 22.4717 70.6215 22.3182C71.2124 22.1648 71.8317 22.0569 72.4794 21.9944C73.2408 21.9148 73.8544 21.841 74.3203 21.7728C74.7863 21.6989 75.1243 21.591 75.3345 21.4489C75.5448 21.3069 75.6499 21.0967 75.6499 20.8182V20.7671C75.6499 20.2273 75.4794 19.8097 75.1385 19.5143C74.8033 19.2188 74.326 19.0711 73.7067 19.0711C73.0533 19.0711 72.5334 19.216 72.147 19.5057C71.7607 19.7898 71.505 20.1478 71.38 20.5796L68.022 20.3069C68.1925 19.5114 68.5277 18.8239 69.0277 18.2444C69.5277 17.6592 70.1726 17.2103 70.9624 16.8978C71.7578 16.5796 72.6783 16.4205 73.7238 16.4205C74.451 16.4205 75.147 16.5057 75.8118 16.6762C76.4823 16.8467 77.076 17.1109 77.5931 17.4688C78.1158 17.8268 78.5277 18.287 78.8289 18.8495C79.13 19.4063 79.2806 20.0739 79.2806 20.8523V29.6819H75.8374V27.8665H75.7351C75.5249 28.2756 75.2436 28.6364 74.8914 28.9489C74.5391 29.2557 74.1158 29.4972 73.6215 29.6734C73.1272 29.8438 72.5561 29.929 71.9084 29.929ZM72.9482 27.4234C73.4823 27.4234 73.9539 27.3182 74.363 27.108C74.772 26.8921 75.0931 26.6023 75.326 26.2387C75.559 25.8751 75.6755 25.4631 75.6755 25.0029V23.6137C75.5618 23.6876 75.4056 23.7557 75.2067 23.8182C75.0135 23.8751 74.7948 23.929 74.5505 23.9802C74.3061 24.0256 74.0618 24.0682 73.8175 24.108C73.5732 24.1421 73.3516 24.1734 73.1527 24.2018C72.7266 24.2643 72.3544 24.3637 72.0363 24.5001C71.7181 24.6364 71.4709 24.8211 71.2948 25.054C71.1186 25.2813 71.0306 25.5654 71.0306 25.9063C71.0306 26.4006 71.2096 26.7785 71.5675 27.0398C71.9311 27.2955 72.3914 27.4234 72.9482 27.4234Z" fill="#433456"/>
<path d="M82.0973 34.591V16.591H85.6769V18.7898H85.8388C85.9979 18.4376 86.228 18.0796 86.5292 17.716C86.836 17.3467 87.2337 17.0398 87.7223 16.7955C88.2166 16.5455 88.8303 16.4205 89.5632 16.4205C90.5178 16.4205 91.3985 16.6705 92.2053 17.1705C93.0121 17.6648 93.657 18.412 94.1399 19.412C94.6229 20.4063 94.8644 21.6535 94.8644 23.1535C94.8644 24.6137 94.6286 25.8467 94.157 26.8523C93.6911 27.8523 93.0547 28.6109 92.2479 29.1279C91.4468 29.6393 90.549 29.895 89.5547 29.895C88.8502 29.895 88.2507 29.7785 87.7564 29.5455C87.2678 29.3126 86.8672 29.02 86.5547 28.6677C86.2422 28.3097 86.0036 27.9489 85.8388 27.5853H85.728V34.591H82.0973ZM85.6513 23.1364C85.6513 23.9148 85.7593 24.5938 85.9752 25.1734C86.1911 25.7529 86.5036 26.2046 86.9127 26.5285C87.3218 26.8467 87.8189 27.0057 88.4042 27.0057C88.9951 27.0057 89.4951 26.8438 89.9042 26.52C90.3132 26.1904 90.6229 25.7359 90.8331 25.1563C91.049 24.5711 91.157 23.8978 91.157 23.1364C91.157 22.3807 91.0519 21.716 90.8417 21.1421C90.6314 20.5682 90.3218 20.1194 89.9127 19.7955C89.5036 19.4717 89.0007 19.3097 88.4042 19.3097C87.8132 19.3097 87.3132 19.466 86.9042 19.7785C86.5007 20.091 86.1911 20.5342 85.9752 21.108C85.7593 21.6819 85.6513 22.358 85.6513 23.1364Z" fill="#433456"/>
<path d="M97.2848 29.6819V16.591H100.916V29.6819H97.2848ZM99.1087 14.9035C98.5689 14.9035 98.1059 14.7245 97.7195 14.3665C97.3388 14.0029 97.1485 13.5682 97.1485 13.0626C97.1485 12.5626 97.3388 12.1336 97.7195 11.7756C98.1059 11.412 98.5689 11.2302 99.1087 11.2302C99.6485 11.2302 100.109 11.412 100.489 11.7756C100.876 12.1336 101.069 12.5626 101.069 13.0626C101.069 13.5682 100.876 14.0029 100.489 14.3665C100.109 14.7245 99.6485 14.9035 99.1087 14.9035Z" fill="#433456"/>
<path d="M109.79 29.9376C108.443 29.9376 107.284 29.6648 106.313 29.1194C105.347 28.5682 104.602 27.7898 104.08 26.7842C103.557 25.7728 103.295 24.5768 103.295 23.1961C103.295 21.8495 103.557 20.6677 104.08 19.6506C104.602 18.6336 105.338 17.841 106.287 17.2728C107.242 16.7046 108.361 16.4205 109.645 16.4205C110.509 16.4205 111.313 16.5597 112.057 16.8381C112.807 17.1109 113.46 17.5228 114.017 18.0739C114.58 18.6251 115.017 19.3182 115.33 20.1535C115.642 20.983 115.798 21.9546 115.798 23.0682V24.0654H104.744V21.8154H112.381C112.381 21.2927 112.267 20.8296 112.04 20.4262C111.813 20.0228 111.497 19.7075 111.094 19.4802C110.696 19.2472 110.233 19.1307 109.705 19.1307C109.153 19.1307 108.665 19.2586 108.239 19.5143C107.818 19.7643 107.489 20.1023 107.25 20.5285C107.011 20.9489 106.889 21.4177 106.884 21.9347V24.0739C106.884 24.7217 107.003 25.2813 107.242 25.7529C107.486 26.2245 107.83 26.5881 108.273 26.8438C108.716 27.0995 109.242 27.2273 109.849 27.2273C110.253 27.2273 110.622 27.1705 110.957 27.0569C111.293 26.9432 111.58 26.7728 111.818 26.5455C112.057 26.3182 112.239 26.0398 112.364 25.7103L115.722 25.9319C115.551 26.7387 115.202 27.4432 114.673 28.0455C114.151 28.6421 113.474 29.108 112.645 29.4432C111.821 29.7728 110.869 29.9376 109.79 29.9376Z" fill="#433456"/>
<path d="M121.798 22.1137V29.6819H118.168V16.591H121.628V18.9006H121.781C122.071 18.1393 122.557 17.537 123.239 17.0938C123.92 16.645 124.747 16.4205 125.719 16.4205C126.628 16.4205 127.42 16.6194 128.097 17.0171C128.773 17.4148 129.298 17.983 129.673 18.7217C130.048 19.4546 130.236 20.3296 130.236 21.3467V29.6819H126.605V21.9944C126.611 21.1932 126.406 20.5682 125.992 20.1194C125.577 19.6648 125.006 19.4376 124.278 19.4376C123.79 19.4376 123.358 19.5427 122.983 19.7529C122.614 19.9631 122.324 20.27 122.114 20.6734C121.909 21.0711 121.804 21.5512 121.798 22.1137Z" fill="#433456"/>
<path d="M77.6463 43.6819V37.8637H78.8566V40.0512H78.8935C78.9465 39.9338 79.0232 39.8145 79.1236 39.6932C79.2259 39.5701 79.3585 39.4679 79.5213 39.3864C79.6861 39.3031 79.8907 39.2614 80.135 39.2614C80.4532 39.2614 80.7467 39.3448 81.0157 39.5114C81.2846 39.6762 81.4996 39.9253 81.6605 40.2586C81.8215 40.59 81.902 41.0057 81.902 41.5057C81.902 41.9925 81.8234 42.4035 81.6662 42.7387C81.5109 43.072 81.2988 43.3249 81.0299 43.4972C80.7628 43.6677 80.4636 43.7529 80.1321 43.7529C79.8973 43.7529 79.6975 43.7141 79.5327 43.6364C79.3698 43.5588 79.2363 43.4612 79.1321 43.3438C79.028 43.2245 78.9484 43.1042 78.8935 42.983H78.8395V43.6819H77.6463ZM78.831 41.5001C78.831 41.7595 78.867 41.9859 78.9389 42.179C79.0109 42.3722 79.1151 42.5228 79.2514 42.6307C79.3878 42.7368 79.5535 42.7898 79.7486 42.7898C79.9456 42.7898 80.1122 42.7359 80.2486 42.6279C80.385 42.5181 80.4882 42.3665 80.5583 42.1734C80.6302 41.9783 80.6662 41.7539 80.6662 41.5001C80.6662 41.2482 80.6312 41.0266 80.5611 40.8353C80.491 40.644 80.3878 40.4944 80.2514 40.3864C80.1151 40.2785 79.9475 40.2245 79.7486 40.2245C79.5516 40.2245 79.385 40.2766 79.2486 40.3807C79.1141 40.4849 79.0109 40.6326 78.9389 40.8239C78.867 41.0152 78.831 41.2406 78.831 41.5001Z" fill="#433456"/>
<path d="M83.3161 45.3182C83.1627 45.3182 83.0187 45.3059 82.8843 45.2813C82.7517 45.2586 82.6418 45.2292 82.5547 45.1932L82.8274 44.2898C82.9695 44.3334 83.0973 44.3571 83.211 44.3609C83.3265 44.3647 83.4259 44.3381 83.5093 44.2813C83.5945 44.2245 83.6636 44.1279 83.7167 43.9915L83.7877 43.8069L82.2223 39.3182H83.4951L84.3985 42.5228H84.4439L85.3559 39.3182H86.6371L84.9411 44.1535C84.8596 44.3883 84.7488 44.5929 84.6087 44.7671C84.4704 44.9432 84.2953 45.0787 84.0831 45.1734C83.871 45.27 83.6153 45.3182 83.3161 45.3182Z" fill="#433456"/>
<path d="M92.7387 40.5626L91.6307 40.6307C91.6118 40.5361 91.5711 40.4508 91.5086 40.3751C91.4461 40.2974 91.3637 40.2359 91.2614 40.1904C91.161 40.1431 91.0407 40.1194 90.9006 40.1194C90.7131 40.1194 90.555 40.1592 90.4262 40.2387C90.2974 40.3164 90.233 40.4205 90.233 40.5512C90.233 40.6554 90.2747 40.7434 90.358 40.8154C90.4413 40.8874 90.5843 40.9451 90.787 40.9887L91.5767 41.1478C92.001 41.2349 92.3173 41.3751 92.5256 41.5682C92.7339 41.7614 92.8381 42.0152 92.8381 42.3296C92.8381 42.6156 92.7538 42.8665 92.5853 43.0825C92.4186 43.2984 92.1894 43.4669 91.8978 43.5881C91.608 43.7075 91.2737 43.7671 90.8949 43.7671C90.3173 43.7671 89.857 43.6468 89.5142 43.4063C89.1733 43.1639 88.9735 42.8343 88.9148 42.4177L90.1051 42.3552C90.1411 42.5313 90.2283 42.6658 90.3665 42.7586C90.5048 42.8495 90.6818 42.895 90.8978 42.895C91.1099 42.895 91.2803 42.8542 91.4091 42.7728C91.5398 42.6895 91.6061 42.5825 91.608 42.4518C91.6061 42.3419 91.5597 42.252 91.4688 42.1819C91.3779 42.1099 91.2377 42.055 91.0483 42.0171L90.2926 41.8665C89.8665 41.7813 89.5493 41.6336 89.3409 41.4234C89.1345 41.2131 89.0313 40.9451 89.0313 40.6194C89.0313 40.3391 89.107 40.0976 89.2586 39.895C89.412 39.6923 89.6269 39.536 89.9034 39.4262C90.1819 39.3164 90.5076 39.2614 90.8807 39.2614C91.4319 39.2614 91.8656 39.3779 92.1818 39.6109C92.5 39.8438 92.6856 40.161 92.7387 40.5626Z" fill="#433456"/>
<path d="M93.6002 43.6819V39.3182H94.7536V40.0881H94.8047C94.8956 39.8325 95.0471 39.6307 95.2593 39.483C95.4714 39.3353 95.7252 39.2614 96.0206 39.2614C96.3199 39.2614 96.5746 39.3362 96.7848 39.4859C96.9951 39.6336 97.1352 39.8343 97.2053 40.0881H97.2507C97.3398 39.8381 97.5007 39.6383 97.7337 39.4887C97.9685 39.3372 98.246 39.2614 98.5661 39.2614C98.9733 39.2614 99.3038 39.3912 99.5576 39.6506C99.8132 39.9082 99.9411 40.2737 99.9411 40.7472V43.6819H98.7337V40.9859C98.7337 40.7434 98.6693 40.5616 98.5405 40.4404C98.4117 40.3192 98.2507 40.2586 98.0576 40.2586C97.8379 40.2586 97.6665 40.3287 97.5434 40.4688C97.4203 40.6071 97.3587 40.7898 97.3587 41.0171V43.6819H96.1854V40.9603C96.1854 40.7463 96.1238 40.5758 96.0007 40.4489C95.8795 40.322 95.7195 40.2586 95.5206 40.2586C95.3862 40.2586 95.2649 40.2927 95.157 40.3609C95.0509 40.4272 94.9667 40.5209 94.9042 40.6421C94.8417 40.7614 94.8104 40.9016 94.8104 41.0626V43.6819H93.6002Z" fill="#433456"/>
<path d="M102.141 43.7643C101.863 43.7643 101.615 43.716 101.397 43.6194C101.179 43.5209 101.007 43.376 100.88 43.1847C100.755 42.9915 100.693 42.751 100.693 42.4631C100.693 42.2207 100.737 42.0171 100.826 41.8523C100.915 41.6876 101.036 41.555 101.19 41.4546C101.343 41.3542 101.517 41.2785 101.712 41.2273C101.909 41.1762 102.116 41.1402 102.332 41.1194C102.585 41.0929 102.79 41.0682 102.945 41.0455C103.101 41.0209 103.213 40.9849 103.283 40.9376C103.353 40.8902 103.389 40.8201 103.389 40.7273V40.7103C103.389 40.5304 103.332 40.3912 103.218 40.2927C103.106 40.1942 102.947 40.145 102.741 40.145C102.523 40.145 102.35 40.1932 102.221 40.2898C102.092 40.3845 102.007 40.5039 101.965 40.6478L100.846 40.5569C100.903 40.2917 101.014 40.0626 101.181 39.8694C101.348 39.6743 101.563 39.5247 101.826 39.4205C102.091 39.3145 102.398 39.2614 102.746 39.2614C102.989 39.2614 103.221 39.2898 103.443 39.3467C103.666 39.4035 103.864 39.4915 104.036 39.6109C104.21 39.7302 104.348 39.8836 104.448 40.0711C104.549 40.2567 104.599 40.4792 104.599 40.7387V43.6819H103.451V43.0768H103.417C103.347 43.2131 103.253 43.3334 103.136 43.4376C103.018 43.5398 102.877 43.6203 102.712 43.679C102.548 43.7359 102.357 43.7643 102.141 43.7643ZM102.488 42.929C102.666 42.929 102.823 42.894 102.96 42.8239C103.096 42.752 103.203 42.6554 103.281 42.5342C103.358 42.4129 103.397 42.2756 103.397 42.1222V41.6592C103.359 41.6838 103.307 41.7065 103.241 41.7273C103.176 41.7463 103.103 41.7643 103.022 41.7813C102.941 41.7965 102.859 41.8107 102.778 41.8239C102.696 41.8353 102.622 41.8457 102.556 41.8552C102.414 41.876 102.29 41.9092 102.184 41.9546C102.078 42.0001 101.996 42.0616 101.937 42.1393C101.878 42.215 101.849 42.3097 101.849 42.4234C101.849 42.5881 101.908 42.7141 102.028 42.8012C102.149 42.8864 102.302 42.929 102.488 42.929Z" fill="#433456"/>
<path d="M106.748 37.8637V43.6819H105.538V37.8637H106.748Z" fill="#433456"/>
<path d="M108.928 37.8637V43.6819H107.717V37.8637H108.928Z" fill="#433456"/>
<path d="M111.886 43.7671C111.437 43.7671 111.05 43.6762 110.727 43.4944C110.405 43.3107 110.157 43.0512 109.982 42.716C109.808 42.3789 109.721 41.9802 109.721 41.52C109.721 41.0711 109.808 40.6771 109.982 40.3381C110.157 39.9991 110.402 39.7349 110.718 39.5455C111.036 39.3561 111.409 39.2614 111.837 39.2614C112.125 39.2614 112.393 39.3078 112.641 39.4006C112.891 39.4915 113.109 39.6289 113.295 39.8126C113.482 39.9963 113.628 40.2273 113.732 40.5057C113.836 40.7823 113.889 41.1061 113.889 41.4773V41.8097H110.204V41.0597H112.749C112.749 40.8855 112.711 40.7311 112.636 40.5967C112.56 40.4622 112.455 40.3571 112.32 40.2813C112.188 40.2037 112.033 40.1648 111.857 40.1648C111.674 40.1648 111.511 40.2075 111.369 40.2927C111.228 40.376 111.119 40.4887 111.039 40.6307C110.96 40.7709 110.919 40.9272 110.917 41.0995V41.8126C110.917 42.0285 110.957 42.215 111.036 42.3722C111.118 42.5294 111.232 42.6506 111.38 42.7359C111.528 42.8211 111.703 42.8637 111.906 42.8637C112.04 42.8637 112.163 42.8448 112.275 42.8069C112.387 42.769 112.482 42.7122 112.562 42.6364C112.641 42.5607 112.702 42.4679 112.744 42.358L113.863 42.4319C113.806 42.7008 113.69 42.9357 113.514 43.1364C113.339 43.3353 113.114 43.4906 112.837 43.6023C112.563 43.7122 112.246 43.7671 111.886 43.7671Z" fill="#433456"/>
<path d="M118.309 40.5626L117.201 40.6307C117.182 40.5361 117.141 40.4508 117.079 40.3751C117.016 40.2974 116.934 40.2359 116.832 40.1904C116.731 40.1431 116.611 40.1194 116.471 40.1194C116.283 40.1194 116.125 40.1592 115.996 40.2387C115.868 40.3164 115.803 40.4205 115.803 40.5512C115.803 40.6554 115.845 40.7434 115.928 40.8154C116.012 40.8874 116.155 40.9451 116.357 40.9887L117.147 41.1478C117.571 41.2349 117.888 41.3751 118.096 41.5682C118.304 41.7614 118.408 42.0152 118.408 42.3296C118.408 42.6156 118.324 42.8665 118.156 43.0825C117.989 43.2984 117.76 43.4669 117.468 43.5881C117.178 43.7075 116.844 43.7671 116.465 43.7671C115.888 43.7671 115.427 43.6468 115.085 43.4063C114.744 43.1639 114.544 42.8343 114.485 42.4177L115.675 42.3552C115.711 42.5313 115.799 42.6658 115.937 42.7586C116.075 42.8495 116.252 42.895 116.468 42.895C116.68 42.895 116.851 42.8542 116.979 42.7728C117.11 42.6895 117.176 42.5825 117.178 42.4518C117.176 42.3419 117.13 42.252 117.039 42.1819C116.948 42.1099 116.808 42.055 116.619 42.0171L115.863 41.8665C115.437 41.7813 115.12 41.6336 114.911 41.4234C114.705 41.2131 114.602 40.9451 114.602 40.6194C114.602 40.3391 114.677 40.0976 114.829 39.895C114.982 39.6923 115.197 39.536 115.474 39.4262C115.752 39.3164 116.078 39.2614 116.451 39.2614C117.002 39.2614 117.436 39.3779 117.752 39.6109C118.07 39.8438 118.256 40.161 118.309 40.5626Z" fill="#433456"/>
<path d="M121.492 39.3182V40.2273H118.864V39.3182H121.492ZM119.46 38.2728H120.67V42.341C120.67 42.4527 120.688 42.5398 120.722 42.6023C120.756 42.6629 120.803 42.7056 120.864 42.7302C120.926 42.7548 120.998 42.7671 121.08 42.7671C121.136 42.7671 121.193 42.7624 121.25 42.7529C121.307 42.7415 121.35 42.733 121.381 42.7273L121.571 43.6279C121.51 43.6468 121.425 43.6686 121.315 43.6932C121.206 43.7198 121.072 43.7359 120.915 43.7415C120.623 43.7529 120.367 43.7141 120.148 43.6251C119.93 43.536 119.76 43.3978 119.639 43.2103C119.518 43.0228 119.458 42.786 119.46 42.5001V38.2728Z" fill="#433456"/>
<path d="M122.987 43.7557C122.8 43.7557 122.639 43.6895 122.504 43.5569C122.372 43.4224 122.305 43.2614 122.305 43.0739C122.305 42.8883 122.372 42.7292 122.504 42.5967C122.639 42.4641 122.8 42.3978 122.987 42.3978C123.169 42.3978 123.328 42.4641 123.465 42.5967C123.601 42.7292 123.669 42.8883 123.669 43.0739C123.669 43.1989 123.637 43.3135 123.572 43.4177C123.51 43.52 123.428 43.6023 123.325 43.6648C123.223 43.7254 123.11 43.7557 122.987 43.7557Z" fill="#433456"/>
<path d="M125.907 43.7643C125.629 43.7643 125.38 43.716 125.163 43.6194C124.945 43.5209 124.773 43.376 124.646 43.1847C124.521 42.9915 124.458 42.751 124.458 42.4631C124.458 42.2207 124.503 42.0171 124.592 41.8523C124.681 41.6876 124.802 41.555 124.955 41.4546C125.109 41.3542 125.283 41.2785 125.478 41.2273C125.675 41.1762 125.881 41.1402 126.097 41.1194C126.351 41.0929 126.556 41.0682 126.711 41.0455C126.866 41.0209 126.979 40.9849 127.049 40.9376C127.119 40.8902 127.154 40.8201 127.154 40.7273V40.7103C127.154 40.5304 127.097 40.3912 126.984 40.2927C126.872 40.1942 126.713 40.145 126.506 40.145C126.289 40.145 126.115 40.1932 125.987 40.2898C125.858 40.3845 125.773 40.5039 125.731 40.6478L124.612 40.5569C124.668 40.2917 124.78 40.0626 124.947 39.8694C125.113 39.6743 125.328 39.5247 125.592 39.4205C125.857 39.3145 126.164 39.2614 126.512 39.2614C126.755 39.2614 126.987 39.2898 127.208 39.3467C127.432 39.4035 127.63 39.4915 127.802 39.6109C127.976 39.7302 128.113 39.8836 128.214 40.0711C128.314 40.2567 128.364 40.4792 128.364 40.7387V43.6819H127.217V43.0768H127.183C127.112 43.2131 127.019 43.3334 126.901 43.4376C126.784 43.5398 126.643 43.6203 126.478 43.679C126.313 43.7359 126.123 43.7643 125.907 43.7643ZM126.254 42.929C126.432 42.929 126.589 42.894 126.725 42.8239C126.862 42.752 126.969 42.6554 127.046 42.5342C127.124 42.4129 127.163 42.2756 127.163 42.1222V41.6592C127.125 41.6838 127.073 41.7065 127.006 41.7273C126.942 41.7463 126.869 41.7643 126.788 41.7813C126.706 41.7965 126.625 41.8107 126.543 41.8239C126.462 41.8353 126.388 41.8457 126.322 41.8552C126.18 41.876 126.056 41.9092 125.95 41.9546C125.844 42.0001 125.761 42.0616 125.702 42.1393C125.644 42.215 125.614 42.3097 125.614 42.4234C125.614 42.5881 125.674 42.7141 125.793 42.8012C125.915 42.8864 126.068 42.929 126.254 42.929Z" fill="#433456"/>
<path d="M129.303 43.6819V39.3182H130.514V43.6819H129.303ZM129.911 38.7557C129.731 38.7557 129.577 38.6961 129.448 38.5768C129.321 38.4556 129.258 38.3107 129.258 38.1421C129.258 37.9754 129.321 37.8325 129.448 37.7131C129.577 37.5919 129.731 37.5313 129.911 37.5313C130.091 37.5313 130.245 37.5919 130.371 37.7131C130.5 37.8325 130.565 37.9754 130.565 38.1421C130.565 38.3107 130.5 38.4556 130.371 38.5768C130.245 38.6961 130.091 38.7557 129.911 38.7557Z" fill="#433456"/>
<path d="M24.1085 40.301L23.2487 26.9914L34.3916 34.4544L39 26.338L26.9974 20.4914L39 14.6449L34.3916 6.52845L23.2487 13.9914L24.1085 0.681885H14.8572L15.7513 13.9914L4.60847 6.52845L0 14.6449L11.9683 20.4914L0 26.338L4.60847 34.4544L15.7513 26.9914L14.8572 40.301H24.1085Z" fill="#433456"/>
</svg>
