<svg width="131" height="45" viewBox="0 0 131 45" fill="none" xmlns="http://www.w3.org/2000/svg">
<path d="M61.9858 16.5653C61.9176 15.8778 61.625 15.3438 61.108 14.9631C60.5909 14.5824 59.8892 14.392 59.0029 14.392C58.4006 14.392 57.8921 14.4773 57.4773 14.6477C57.0625 14.8125 56.7443 15.0426 56.5228 15.3381C56.3068 15.6335 56.1989 15.9688 56.1989 16.3438C56.1875 16.6562 56.2529 16.929 56.3949 17.1619C56.5426 17.3949 56.7443 17.5966 57 17.767C57.2557 17.9318 57.5512 18.0767 57.8864 18.2017C58.2216 18.321 58.5796 18.4233 58.9603 18.5085L60.5284 18.8835C61.2898 19.054 61.9887 19.2812 62.625 19.5653C63.2614 19.8494 63.8125 20.1989 64.2784 20.6136C64.7443 21.0284 65.1051 21.517 65.3608 22.0795C65.6222 22.642 65.7557 23.2869 65.7614 24.0142C65.7557 25.0824 65.483 26.0085 64.9432 26.7926C64.4091 27.571 63.6364 28.1761 62.625 28.608C61.6193 29.0341 60.4063 29.2472 58.9858 29.2472C57.5767 29.2472 56.3495 29.0313 55.304 28.5994C54.2642 28.1676 53.4517 27.5284 52.8665 26.6818C52.287 25.8295 51.983 24.7756 51.9546 23.5199H55.5256C55.5654 24.1051 55.733 24.5938 56.0284 24.9858C56.3296 25.3722 56.7301 25.6648 57.2301 25.8636C57.7358 26.0568 58.3068 26.1534 58.9432 26.1534C59.5682 26.1534 60.1108 26.0625 60.571 25.8807C61.037 25.6989 61.3977 25.446 61.6534 25.1222C61.9091 24.7983 62.037 24.4261 62.037 24.0057C62.037 23.6136 61.9205 23.2841 61.6875 23.017C61.4603 22.75 61.125 22.5227 60.6818 22.3352C60.2443 22.1477 59.7074 21.9773 59.071 21.8239L57.1705 21.3466C55.6989 20.9886 54.537 20.429 53.6847 19.6676C52.8324 18.9062 52.4091 17.8807 52.4148 16.5909C52.4091 15.5341 52.6904 14.6108 53.2585 13.821C53.8324 13.0312 54.6193 12.4148 55.6193 11.9716C56.6193 11.5284 57.7557 11.3068 59.0284 11.3068C60.3239 11.3068 61.4546 11.5284 62.4205 11.9716C63.3921 12.4148 64.1478 13.0312 64.6875 13.821C65.2273 14.6108 65.5057 15.5256 65.5228 16.5653H61.9858Z" fill="white"/>
<path d="M71.9084 29.2472C71.0732 29.2472 70.3289 29.1023 69.6754 28.8125C69.022 28.517 68.505 28.0824 68.1243 27.5085C67.7493 26.929 67.5618 26.2074 67.5618 25.3438C67.5618 24.6165 67.6953 24.0057 67.9624 23.5114C68.2294 23.017 68.5931 22.6193 69.0533 22.3182C69.5135 22.017 70.0362 21.7898 70.6215 21.6364C71.2124 21.483 71.8317 21.375 72.4794 21.3125C73.2408 21.233 73.8544 21.1591 74.3203 21.0909C74.7862 21.017 75.1243 20.9091 75.3345 20.767C75.5448 20.625 75.6499 20.4148 75.6499 20.1364V20.0852C75.6499 19.5455 75.4794 19.1278 75.1385 18.8324C74.8033 18.5369 74.326 18.3892 73.7067 18.3892C73.0533 18.3892 72.5334 18.5341 72.147 18.8239C71.7607 19.108 71.505 19.4659 71.38 19.8977L68.022 19.625C68.1925 18.8295 68.5277 18.142 69.0277 17.5625C69.5277 16.9773 70.1726 16.5284 70.9624 16.2159C71.7578 15.8977 72.6783 15.7386 73.7237 15.7386C74.451 15.7386 75.147 15.8239 75.8118 15.9943C76.4823 16.1648 77.076 16.429 77.5931 16.7869C78.1158 17.1449 78.5277 17.6051 78.8289 18.1676C79.13 18.7244 79.2806 19.392 79.2806 20.1705V29H75.8374V27.1847H75.7351C75.5249 27.5938 75.2436 27.9545 74.8914 28.267C74.5391 28.5739 74.1158 28.8153 73.6215 28.9915C73.1272 29.1619 72.5561 29.2472 71.9084 29.2472ZM72.9482 26.7415C73.4823 26.7415 73.9539 26.6364 74.3629 26.4261C74.772 26.2102 75.0931 25.9205 75.326 25.5568C75.559 25.1932 75.6755 24.7812 75.6755 24.321V22.9318C75.5618 23.0057 75.4056 23.0739 75.2067 23.1364C75.0135 23.1932 74.7948 23.2472 74.5505 23.2983C74.3061 23.3438 74.0618 23.3864 73.8175 23.4261C73.5732 23.4602 73.3516 23.4915 73.1527 23.5199C72.7266 23.5824 72.3544 23.6818 72.0362 23.8182C71.7181 23.9545 71.4709 24.1392 71.2948 24.3722C71.1186 24.5994 71.0306 24.8835 71.0306 25.2244C71.0306 25.7188 71.2095 26.0966 71.5675 26.358C71.9311 26.6136 72.3914 26.7415 72.9482 26.7415Z" fill="white"/>
<path d="M82.0973 33.9091V15.9091H85.6769V18.108H85.8388C85.9979 17.7557 86.228 17.3977 86.5291 17.0341C86.836 16.6648 87.2337 16.358 87.7223 16.1136C88.2166 15.8636 88.8303 15.7386 89.5632 15.7386C90.5178 15.7386 91.3985 15.9886 92.2053 16.4886C93.0121 16.983 93.657 17.7301 94.1399 18.7301C94.6229 19.7244 94.8644 20.9716 94.8644 22.4716C94.8644 23.9318 94.6286 25.1648 94.157 26.1705C93.6911 27.1705 93.0547 27.929 92.2479 28.446C91.4468 28.9574 90.549 29.2131 89.5547 29.2131C88.8502 29.2131 88.2507 29.0966 87.7564 28.8636C87.2678 28.6307 86.8672 28.3381 86.5547 27.9858C86.2422 27.6278 86.0036 27.267 85.8388 26.9034H85.728V33.9091H82.0973ZM85.6513 22.4545C85.6513 23.233 85.7593 23.9119 85.9752 24.4915C86.1911 25.071 86.5036 25.5227 86.9127 25.8466C87.3218 26.1648 87.8189 26.3239 88.4041 26.3239C88.9951 26.3239 89.4951 26.1619 89.9041 25.8381C90.3132 25.5085 90.6229 25.054 90.8331 24.4744C91.049 23.8892 91.157 23.2159 91.157 22.4545C91.157 21.6989 91.0519 21.0341 90.8416 20.4602C90.6314 19.8864 90.3218 19.4375 89.9127 19.1136C89.5036 18.7898 89.0007 18.6278 88.4041 18.6278C87.8132 18.6278 87.3132 18.7841 86.9041 19.0966C86.5007 19.4091 86.1911 19.8523 85.9752 20.4261C85.7593 21 85.6513 21.6761 85.6513 22.4545Z" fill="white"/>
<path d="M97.2848 29V15.9091H100.916V29H97.2848ZM99.1087 14.2216C98.5689 14.2216 98.1058 14.0426 97.7195 13.6847C97.3388 13.321 97.1485 12.8864 97.1485 12.3807C97.1485 11.8807 97.3388 11.4517 97.7195 11.0938C98.1058 10.7301 98.5689 10.5483 99.1087 10.5483C99.6485 10.5483 100.109 10.7301 100.489 11.0938C100.876 11.4517 101.069 11.8807 101.069 12.3807C101.069 12.8864 100.876 13.321 100.489 13.6847C100.109 14.0426 99.6485 14.2216 99.1087 14.2216Z" fill="white"/>
<path d="M109.79 29.2557C108.443 29.2557 107.284 28.983 106.313 28.4375C105.347 27.8864 104.602 27.108 104.08 26.1023C103.557 25.0909 103.295 23.8949 103.295 22.5142C103.295 21.1676 103.557 19.9858 104.08 18.9688C104.602 17.9517 105.338 17.1591 106.287 16.5909C107.242 16.0227 108.361 15.7386 109.645 15.7386C110.509 15.7386 111.313 15.8778 112.057 16.1562C112.807 16.429 113.46 16.8409 114.017 17.392C114.58 17.9432 115.017 18.6364 115.33 19.4716C115.642 20.3011 115.798 21.2727 115.798 22.3864V23.3835H104.744V21.1335H112.381C112.381 20.6108 112.267 20.1477 112.04 19.7443C111.813 19.3409 111.497 19.0256 111.094 18.7983C110.696 18.5653 110.233 18.4489 109.705 18.4489C109.153 18.4489 108.665 18.5767 108.239 18.8324C107.818 19.0824 107.489 19.4205 107.25 19.8466C107.011 20.267 106.889 20.7358 106.884 21.2528V23.392C106.884 24.0398 107.003 24.5994 107.242 25.071C107.486 25.5426 107.83 25.9063 108.273 26.1619C108.716 26.4176 109.242 26.5455 109.849 26.5455C110.253 26.5455 110.622 26.4886 110.957 26.375C111.293 26.2614 111.58 26.0909 111.818 25.8636C112.057 25.6364 112.239 25.358 112.364 25.0284L115.722 25.25C115.551 26.0568 115.202 26.7614 114.673 27.3636C114.151 27.9602 113.474 28.4261 112.645 28.7614C111.821 29.0909 110.869 29.2557 109.79 29.2557Z" fill="white"/>
<path d="M121.798 21.4318V29H118.168V15.9091H121.628V18.2188H121.781C122.071 17.4574 122.557 16.8551 123.239 16.4119C123.92 15.9631 124.747 15.7386 125.719 15.7386C126.628 15.7386 127.42 15.9375 128.097 16.3352C128.773 16.733 129.298 17.3011 129.673 18.0398C130.048 18.7727 130.236 19.6477 130.236 20.6648V29H126.605V21.3125C126.611 20.5114 126.406 19.8864 125.992 19.4375C125.577 18.983 125.006 18.7557 124.278 18.7557C123.79 18.7557 123.358 18.8608 122.983 19.071C122.614 19.2812 122.324 19.5881 122.114 19.9915C121.909 20.3892 121.804 20.8693 121.798 21.4318Z" fill="white"/>
<path d="M77.6463 43V37.1818H78.8566V39.3693H78.8935C78.9465 39.2519 79.0232 39.1326 79.1236 39.0114C79.2259 38.8883 79.3585 38.786 79.5213 38.7045C79.6861 38.6212 79.8906 38.5795 80.135 38.5795C80.4531 38.5795 80.7467 38.6629 81.0156 38.8295C81.2846 38.9943 81.4996 39.2434 81.6605 39.5767C81.8215 39.9081 81.902 40.3239 81.902 40.8239C81.902 41.3106 81.8234 41.7216 81.6662 42.0568C81.5109 42.3902 81.2988 42.643 81.0299 42.8153C80.7628 42.9858 80.4636 43.071 80.1321 43.071C79.8973 43.071 79.6975 43.0322 79.5327 42.9545C79.3698 42.8769 79.2363 42.7794 79.1321 42.6619C79.028 42.5426 78.9484 42.4223 78.8935 42.3011H78.8395V43H77.6463ZM78.831 40.8182C78.831 41.0776 78.867 41.304 78.9389 41.4972C79.0109 41.6903 79.1151 41.8409 79.2514 41.9489C79.3878 42.0549 79.5535 42.108 79.7486 42.108C79.9456 42.108 80.1122 42.054 80.2486 41.946C80.385 41.8362 80.4882 41.6847 80.5583 41.4915C80.6302 41.2964 80.6662 41.072 80.6662 40.8182C80.6662 40.5663 80.6312 40.3447 80.5611 40.1534C80.491 39.9621 80.3878 39.8125 80.2514 39.7045C80.1151 39.5966 79.9475 39.5426 79.7486 39.5426C79.5516 39.5426 79.385 39.5947 79.2486 39.6989C79.1141 39.803 79.0109 39.9508 78.9389 40.142C78.867 40.3333 78.831 40.5587 78.831 40.8182Z" fill="white"/>
<path d="M83.3161 44.6364C83.1627 44.6364 83.0187 44.6241 82.8843 44.5994C82.7517 44.5767 82.6418 44.5473 82.5547 44.5114L82.8274 43.608C82.9695 43.6515 83.0973 43.6752 83.211 43.679C83.3265 43.6828 83.4259 43.6562 83.5093 43.5994C83.5945 43.5426 83.6636 43.446 83.7166 43.3097L83.7877 43.125L82.2223 38.6364H83.495L84.3985 41.8409H84.4439L85.3559 38.6364H86.6371L84.9411 43.4716C84.8596 43.7064 84.7488 43.911 84.6087 44.0852C84.4704 44.2614 84.2952 44.3968 84.0831 44.4915C83.871 44.5881 83.6153 44.6364 83.3161 44.6364Z" fill="white"/>
<path d="M92.7387 39.8807L91.6307 39.9489C91.6118 39.8542 91.571 39.7689 91.5085 39.6932C91.446 39.6155 91.3637 39.554 91.2614 39.5085C91.161 39.4612 91.0407 39.4375 90.9006 39.4375C90.7131 39.4375 90.555 39.4773 90.4262 39.5568C90.2974 39.6345 90.233 39.7386 90.233 39.8693C90.233 39.9735 90.2746 40.0616 90.358 40.1335C90.4413 40.2055 90.5843 40.2633 90.787 40.3068L91.5767 40.4659C92.001 40.553 92.3173 40.6932 92.5256 40.8864C92.7339 41.0795 92.8381 41.3333 92.8381 41.6477C92.8381 41.9337 92.7538 42.1847 92.5853 42.4006C92.4186 42.6165 92.1894 42.785 91.8978 42.9062C91.608 43.0256 91.2737 43.0852 90.8949 43.0852C90.3173 43.0852 89.857 42.965 89.5142 42.7244C89.1733 42.482 88.9735 42.1525 88.9148 41.7358L90.1051 41.6733C90.1411 41.8494 90.2282 41.9839 90.3665 42.0767C90.5048 42.1676 90.6818 42.2131 90.8978 42.2131C91.1099 42.2131 91.2803 42.1723 91.4091 42.0909C91.5398 42.0076 91.6061 41.9006 91.608 41.7699C91.6061 41.66 91.5597 41.5701 91.4688 41.5C91.3779 41.428 91.2377 41.3731 91.0483 41.3352L90.2926 41.1847C89.8665 41.0994 89.5493 40.9517 89.3409 40.7415C89.1345 40.5313 89.0313 40.2633 89.0313 39.9375C89.0313 39.6572 89.107 39.4157 89.2585 39.2131C89.412 39.0104 89.6269 38.8542 89.9034 38.7443C90.1818 38.6345 90.5076 38.5795 90.8807 38.5795C91.4318 38.5795 91.8656 38.696 92.1818 38.929C92.5 39.1619 92.6856 39.4792 92.7387 39.8807Z" fill="white"/>
<path d="M93.6002 43V38.6364H94.7536V39.4062H94.8047C94.8956 39.1506 95.0471 38.9489 95.2593 38.8011C95.4714 38.6534 95.7252 38.5795 96.0206 38.5795C96.3199 38.5795 96.5746 38.6544 96.7848 38.804C96.995 38.9517 97.1352 39.1525 97.2053 39.4062H97.2507C97.3397 39.1562 97.5007 38.9564 97.7337 38.8068C97.9685 38.6553 98.246 38.5795 98.5661 38.5795C98.9733 38.5795 99.3038 38.7093 99.5575 38.9688C99.8132 39.2263 99.9411 39.5919 99.9411 40.0653V43H98.7337V40.304C98.7337 40.0616 98.6693 39.8797 98.5405 39.7585C98.4117 39.6373 98.2507 39.5767 98.0575 39.5767C97.8379 39.5767 97.6665 39.6468 97.5434 39.7869C97.4202 39.9252 97.3587 40.108 97.3587 40.3352V43H96.1854V40.2784C96.1854 40.0644 96.1238 39.8939 96.0007 39.767C95.8795 39.6402 95.7195 39.5767 95.5206 39.5767C95.3862 39.5767 95.2649 39.6108 95.157 39.679C95.0509 39.7453 94.9666 39.839 94.9041 39.9602C94.8416 40.0795 94.8104 40.2197 94.8104 40.3807V43H93.6002Z" fill="white"/>
<path d="M102.141 43.0824C101.863 43.0824 101.615 43.0341 101.397 42.9375C101.179 42.839 101.007 42.6941 100.88 42.5028C100.755 42.3097 100.692 42.0691 100.692 41.7812C100.692 41.5388 100.737 41.3352 100.826 41.1705C100.915 41.0057 101.036 40.8731 101.19 40.7727C101.343 40.6723 101.517 40.5966 101.712 40.5455C101.909 40.4943 102.116 40.4583 102.332 40.4375C102.585 40.411 102.79 40.3864 102.945 40.3636C103.101 40.339 103.213 40.303 103.283 40.2557C103.353 40.2083 103.389 40.1383 103.389 40.0455V40.0284C103.389 39.8485 103.332 39.7093 103.218 39.6108C103.106 39.5123 102.947 39.4631 102.741 39.4631C102.523 39.4631 102.35 39.5114 102.221 39.608C102.092 39.7027 102.007 39.822 101.965 39.9659L100.846 39.875C100.903 39.6098 101.014 39.3807 101.181 39.1875C101.348 38.9924 101.563 38.8428 101.826 38.7386C102.091 38.6326 102.398 38.5795 102.746 38.5795C102.989 38.5795 103.221 38.608 103.442 38.6648C103.666 38.7216 103.864 38.8097 104.036 38.929C104.21 39.0483 104.348 39.2017 104.448 39.3892C104.549 39.5748 104.599 39.7973 104.599 40.0568V43H103.451V42.3949H103.417C103.347 42.5312 103.253 42.6515 103.136 42.7557C103.018 42.858 102.877 42.9384 102.712 42.9972C102.548 43.054 102.357 43.0824 102.141 43.0824ZM102.488 42.2472C102.666 42.2472 102.823 42.2121 102.96 42.142C103.096 42.0701 103.203 41.9735 103.281 41.8523C103.358 41.7311 103.397 41.5938 103.397 41.4403V40.9773C103.359 41.0019 103.307 41.0246 103.241 41.0455C103.176 41.0644 103.103 41.0824 103.022 41.0994C102.941 41.1146 102.859 41.1288 102.778 41.142C102.696 41.1534 102.622 41.1638 102.556 41.1733C102.414 41.1941 102.29 41.2273 102.184 41.2727C102.078 41.3182 101.996 41.3797 101.937 41.4574C101.878 41.5331 101.849 41.6278 101.849 41.7415C101.849 41.9063 101.908 42.0322 102.028 42.1193C102.149 42.2045 102.302 42.2472 102.488 42.2472Z" fill="white"/>
<path d="M106.748 37.1818V43H105.538V37.1818H106.748Z" fill="white"/>
<path d="M108.928 37.1818V43H107.717V37.1818H108.928Z" fill="white"/>
<path d="M111.886 43.0852C111.437 43.0852 111.05 42.9943 110.727 42.8125C110.405 42.6288 110.157 42.3693 109.982 42.0341C109.808 41.697 109.721 41.2983 109.721 40.8381C109.721 40.3892 109.808 39.9953 109.982 39.6562C110.157 39.3172 110.402 39.053 110.718 38.8636C111.036 38.6742 111.409 38.5795 111.837 38.5795C112.125 38.5795 112.393 38.6259 112.641 38.7188C112.891 38.8097 113.109 38.947 113.295 39.1307C113.482 39.3144 113.628 39.5455 113.732 39.8239C113.836 40.1004 113.889 40.4242 113.889 40.7955V41.1278H110.204V40.3778H112.749C112.749 40.2036 112.711 40.0492 112.636 39.9148C112.56 39.7803 112.455 39.6752 112.32 39.5994C112.188 39.5218 112.033 39.483 111.857 39.483C111.674 39.483 111.511 39.5256 111.369 39.6108C111.228 39.6941 111.119 39.8068 111.039 39.9489C110.96 40.089 110.919 40.2453 110.917 40.4176V41.1307C110.917 41.3466 110.957 41.5331 111.036 41.6903C111.118 41.8475 111.232 41.9688 111.38 42.054C111.528 42.1392 111.703 42.1818 111.906 42.1818C112.04 42.1818 112.163 42.1629 112.275 42.125C112.387 42.0871 112.482 42.0303 112.562 41.9545C112.641 41.8788 112.702 41.786 112.744 41.6761L113.863 41.75C113.806 42.0189 113.69 42.2538 113.514 42.4545C113.339 42.6534 113.114 42.8087 112.837 42.9205C112.563 43.0303 112.246 43.0852 111.886 43.0852Z" fill="white"/>
<path d="M118.309 39.8807L117.201 39.9489C117.182 39.8542 117.141 39.7689 117.079 39.6932C117.016 39.6155 116.934 39.554 116.832 39.5085C116.731 39.4612 116.611 39.4375 116.471 39.4375C116.283 39.4375 116.125 39.4773 115.996 39.5568C115.868 39.6345 115.803 39.7386 115.803 39.8693C115.803 39.9735 115.845 40.0616 115.928 40.1335C116.012 40.2055 116.155 40.2633 116.357 40.3068L117.147 40.4659C117.571 40.553 117.888 40.6932 118.096 40.8864C118.304 41.0795 118.408 41.3333 118.408 41.6477C118.408 41.9337 118.324 42.1847 118.156 42.4006C117.989 42.6165 117.76 42.785 117.468 42.9062C117.178 43.0256 116.844 43.0852 116.465 43.0852C115.888 43.0852 115.427 42.965 115.085 42.7244C114.744 42.482 114.544 42.1525 114.485 41.7358L115.675 41.6733C115.711 41.8494 115.799 41.9839 115.937 42.0767C116.075 42.1676 116.252 42.2131 116.468 42.2131C116.68 42.2131 116.851 42.1723 116.979 42.0909C117.11 42.0076 117.176 41.9006 117.178 41.7699C117.176 41.66 117.13 41.5701 117.039 41.5C116.948 41.428 116.808 41.3731 116.619 41.3352L115.863 41.1847C115.437 41.0994 115.12 40.9517 114.911 40.7415C114.705 40.5313 114.602 40.2633 114.602 39.9375C114.602 39.6572 114.677 39.4157 114.829 39.2131C114.982 39.0104 115.197 38.8542 115.474 38.7443C115.752 38.6345 116.078 38.5795 116.451 38.5795C117.002 38.5795 117.436 38.696 117.752 38.929C118.07 39.1619 118.256 39.4792 118.309 39.8807Z" fill="white"/>
<path d="M121.492 38.6364V39.5455H118.864V38.6364H121.492ZM119.46 37.5909H120.67V41.6591C120.67 41.7708 120.688 41.858 120.722 41.9205C120.756 41.9811 120.803 42.0237 120.864 42.0483C120.926 42.0729 120.998 42.0852 121.08 42.0852C121.136 42.0852 121.193 42.0805 121.25 42.071C121.307 42.0597 121.35 42.0511 121.381 42.0455L121.571 42.946C121.51 42.965 121.425 42.9867 121.315 43.0114C121.206 43.0379 121.072 43.054 120.915 43.0597C120.623 43.071 120.367 43.0322 120.148 42.9432C119.93 42.8542 119.76 42.7159 119.639 42.5284C119.518 42.3409 119.458 42.1042 119.46 41.8182V37.5909Z" fill="white"/>
<path d="M122.987 43.0739C122.8 43.0739 122.639 43.0076 122.504 42.875C122.372 42.7405 122.305 42.5795 122.305 42.392C122.305 42.2064 122.372 42.0473 122.504 41.9148C122.639 41.7822 122.8 41.7159 122.987 41.7159C123.169 41.7159 123.328 41.7822 123.465 41.9148C123.601 42.0473 123.669 42.2064 123.669 42.392C123.669 42.517 123.637 42.6316 123.572 42.7358C123.51 42.8381 123.428 42.9205 123.325 42.983C123.223 43.0436 123.11 43.0739 122.987 43.0739Z" fill="white"/>
<path d="M125.907 43.0824C125.629 43.0824 125.38 43.0341 125.163 42.9375C124.945 42.839 124.773 42.6941 124.646 42.5028C124.521 42.3097 124.458 42.0691 124.458 41.7812C124.458 41.5388 124.503 41.3352 124.592 41.1705C124.681 41.0057 124.802 40.8731 124.955 40.7727C125.109 40.6723 125.283 40.5966 125.478 40.5455C125.675 40.4943 125.881 40.4583 126.097 40.4375C126.351 40.411 126.556 40.3864 126.711 40.3636C126.866 40.339 126.979 40.303 127.049 40.2557C127.119 40.2083 127.154 40.1383 127.154 40.0455V40.0284C127.154 39.8485 127.097 39.7093 126.984 39.6108C126.872 39.5123 126.713 39.4631 126.506 39.4631C126.289 39.4631 126.115 39.5114 125.987 39.608C125.858 39.7027 125.773 39.822 125.731 39.9659L124.612 39.875C124.668 39.6098 124.78 39.3807 124.947 39.1875C125.113 38.9924 125.328 38.8428 125.592 38.7386C125.857 38.6326 126.164 38.5795 126.512 38.5795C126.755 38.5795 126.987 38.608 127.208 38.6648C127.432 38.7216 127.63 38.8097 127.802 38.929C127.976 39.0483 128.113 39.2017 128.214 39.3892C128.314 39.5748 128.364 39.7973 128.364 40.0568V43H127.217V42.3949H127.183C127.112 42.5312 127.019 42.6515 126.901 42.7557C126.784 42.858 126.643 42.9384 126.478 42.9972C126.313 43.054 126.123 43.0824 125.907 43.0824ZM126.254 42.2472C126.432 42.2472 126.589 42.2121 126.725 42.142C126.862 42.0701 126.969 41.9735 127.046 41.8523C127.124 41.7311 127.163 41.5938 127.163 41.4403V40.9773C127.125 41.0019 127.073 41.0246 127.006 41.0455C126.942 41.0644 126.869 41.0824 126.788 41.0994C126.706 41.1146 126.625 41.1288 126.543 41.142C126.462 41.1534 126.388 41.1638 126.322 41.1733C126.18 41.1941 126.056 41.2273 125.95 41.2727C125.844 41.3182 125.761 41.3797 125.702 41.4574C125.644 41.5331 125.614 41.6278 125.614 41.7415C125.614 41.9063 125.674 42.0322 125.793 42.1193C125.915 42.2045 126.068 42.2472 126.254 42.2472Z" fill="white"/>
<path d="M129.303 43V38.6364H130.514V43H129.303ZM129.911 38.0739C129.731 38.0739 129.577 38.0142 129.448 37.8949C129.321 37.7737 129.258 37.6288 129.258 37.4602C129.258 37.2936 129.321 37.1506 129.448 37.0312C129.577 36.91 129.731 36.8494 129.911 36.8494C130.091 36.8494 130.245 36.91 130.371 37.0312C130.5 37.1506 130.565 37.2936 130.565 37.4602C130.565 37.6288 130.5 37.7737 130.371 37.8949C130.245 38.0142 130.091 38.0739 129.911 38.0739Z" fill="white"/>
<path d="M24.1085 39.6191L23.2487 26.3095L34.3916 33.7725L39 25.6561L26.9974 19.8095L39 13.963L34.3916 5.84656L23.2487 13.3095L24.1085 0H14.8572L15.7513 13.3095L4.60847 5.84656L0 13.963L11.9683 19.8095L0 25.6561L4.60847 33.7725L15.7513 26.3095L14.8572 39.6191H24.1085Z" fill="white"/>
</svg>
