<svg width="15" height="14" viewBox="0 0 15 14" fill="none" xmlns="http://www.w3.org/2000/svg">
<path d="M13.8421 8.4C13.6565 8.4 13.4784 8.47375 13.3471 8.60503C13.2159 8.7363 13.1421 8.91435 13.1421 9.1V11.9C13.1421 12.0857 13.0684 12.2637 12.9371 12.395C12.8058 12.5263 12.6278 12.6 12.4421 12.6H2.64211C2.45646 12.6 2.27842 12.5263 2.14714 12.395C2.01586 12.2637 1.94211 12.0857 1.94211 11.9V9.1C1.94211 8.91435 1.86836 8.7363 1.73709 8.60503C1.60581 8.47375 1.42777 8.4 1.24211 8.4C1.05646 8.4 0.878415 8.47375 0.747139 8.60503C0.615864 8.7363 0.542114 8.91435 0.542114 9.1V11.9C0.542114 12.457 0.763364 12.9911 1.15719 13.3849C1.55102 13.7788 2.08516 14 2.64211 14H12.4421C12.9991 14 13.5332 13.7788 13.927 13.3849C14.3209 12.9911 14.5421 12.457 14.5421 11.9V9.1C14.5421 8.91435 14.4684 8.7363 14.3371 8.60503C14.2058 8.47375 14.0278 8.4 13.8421 8.4ZM7.04511 9.597C7.11169 9.66073 7.19019 9.71068 7.27611 9.744C7.3599 9.78103 7.4505 9.80016 7.54211 9.80016C7.63372 9.80016 7.72432 9.78103 7.80811 9.744C7.89404 9.71068 7.97254 9.66073 8.03911 9.597L10.8391 6.797C10.9709 6.66519 11.045 6.48641 11.045 6.3C11.045 6.11359 10.9709 5.93481 10.8391 5.803C10.7073 5.67119 10.5285 5.59714 10.3421 5.59714C10.1557 5.59714 9.97693 5.67119 9.84511 5.803L8.24211 7.413V0.7C8.24211 0.514348 8.16836 0.336301 8.03709 0.205025C7.90581 0.0737498 7.72777 0 7.54211 0C7.35646 0 7.17841 0.0737498 7.04714 0.205025C6.91586 0.336301 6.84211 0.514348 6.84211 0.7V7.413L5.23911 5.803C5.17385 5.73773 5.09636 5.68596 5.01109 5.65064C4.92581 5.61532 4.83442 5.59714 4.74211 5.59714C4.64981 5.59714 4.55841 5.61532 4.47314 5.65064C4.38786 5.68596 4.31038 5.73773 4.24511 5.803C4.17985 5.86827 4.12807 5.94575 4.09275 6.03102C4.05743 6.1163 4.03925 6.2077 4.03925 6.3C4.03925 6.3923 4.05743 6.4837 4.09275 6.56897C4.12807 6.65425 4.17985 6.73173 4.24511 6.797L7.04511 9.597Z" fill="black"/>
</svg>
